<?xml version="1.0" encoding="utf-8"?>
<!-- Generator: Adobe Illustrator 19.2.0, SVG Export Plug-In . SVG Version: 6.00 Build 0)  -->
<svg version="1.1" id="Layer_1" xmlns="http://www.w3.org/2000/svg" xmlns:xlink="http://www.w3.org/1999/xlink" x="0px" y="0px"
	 viewBox="0 0 1000 1000" style="enable-background:new 0 0 1000 1000;" xml:space="preserve">
<style type="text/css">
	.st0{fill:none;stroke:#000000;stroke-width:10;stroke-miterlimit:10;}
</style>
<polygon class="st0" points="286.9,621.6 173.6,569.9 137,510 137,450 107,433.4 107,361.8 133.7,350.1 185.3,386.8 258.6,405.1 
	286.9,426.7 378.4,350.1 421.7,340.1 475,368.5 500,436.7 546.6,480.9 618.2,480.9 698.2,425.1 858,431.7 893,455 893,488.3 
	893,589.9 866.3,588.3 846.4,576.6 828,583.3 776.4,550 729.8,538.3 713.1,526.6 704.8,543.3 728.1,569.9 556.6,614.9 481.7,621.6 
	453.4,659.9 430.1,659.9 403.4,639.9 361.8,638.2 338.5,611.6 "/>
</svg>
