<?xml version="1.0" encoding="utf-8"?>
<!-- Generator: Adobe Illustrator 19.2.0, SVG Export Plug-In . SVG Version: 6.00 Build 0)  -->
<svg version="1.1" id="Layer_1" xmlns="http://www.w3.org/2000/svg" xmlns:xlink="http://www.w3.org/1999/xlink" x="0px" y="0px"
	 viewBox="0 0 1000 1000" style="enable-background:new 0 0 1000 1000;" xml:space="preserve">
<style type="text/css">
	.st0{fill:none;stroke:#000000;stroke-width:10;stroke-miterlimit:10;}
</style>
<path class="st0" d="M928.2,710.3h-64.4l-64.4-38.1l-42.4-28v-35.6c0,0,33.9-61.1,33.9-66.1c0-5.1,25.9-57.7,25.9-57.7l-19.1-35.6
	l19.1-57.7l-48-37.3l-39,23.7l-32.2,13.6h-37.3l-33.9-10.2l-49.2-27.1l-35.6-32.2l-62.8-66.1l-47.5-32.2h-28.8l-40.7,6.8l-18.7,37.3
	l8.5,50.9l-20.4,67.8l-35.6,123.8l-88.2,132.3l-22,49.2l-44.1,18.7l-56,17l-13.6,37.3l74.6,11.9l28.8-23.7l71.2-3.4l67.8-49.2
	l42.4-10.2l47.5-74.6l69.5-38l10.2-28.2l-42.4-59.4l18.7-45.8l27.1,3.4l-5.1-32.2l100.1,44.1l79.7,8.5l40.7-10.2l56,22l34-23.1
	l1.6-0.7l1.7-0.6"/>
</svg>
