<?xml version="1.0" encoding="utf-8"?>
<!-- Generator: Adobe Illustrator 19.2.0, SVG Export Plug-In . SVG Version: 6.00 Build 0)  -->
<svg version="1.1" id="Layer_1" xmlns="http://www.w3.org/2000/svg" xmlns:xlink="http://www.w3.org/1999/xlink" x="0px" y="0px"
	 viewBox="0 0 2000 2000" style="enable-background:new 0 0 2000 2000;" xml:space="preserve">
<style type="text/css">
	.st0{fill:#737144;stroke:#000000;stroke-width:60;stroke-miterlimit:10;}
	.st1{fill:#507282;stroke:#000000;stroke-width:60;stroke-miterlimit:10;}
</style>
<path class="st0" d="M1044.7,1869.5c0,0,0,0,35.5-124.3s62.2-159.8,62.2-159.8v-142.1l-53.6-190.7c-17.3-61.5-48.4-118.2-91.1-165.7
	L831.6,901.6l-71-124.3L645.1,537.5L565.2,129H289.9v1322.9c0,230.7,187,417.6,417.6,417.6H1044.7z"/>
<path class="st1" d="M760.6,129v257.5l53.3,62.2l40,88.8l48.8,79.9l44.4,79.9l44.4,71l53.3,79.9l97.7,195.4l88.8,88.8l88.8,97.7
	l71,222v124.3l-71,239.8l-26.6,53.3h0c230.5,0,417.4-186.9,417.4-417.4V546.4c0-230.5-186.9-417.4-417.4-417.4H760.6z"/>
</svg>
