<?xml version="1.0" encoding="utf-8"?>
<!-- Generator: Adobe Illustrator 19.2.0, SVG Export Plug-In . SVG Version: 6.00 Build 0)  -->
<svg version="1.1" xmlns="http://www.w3.org/2000/svg" xmlns:xlink="http://www.w3.org/1999/xlink" x="0px" y="0px"
	 viewBox="0 0 1000 1000" style="enable-background:new 0 0 1000 1000;" xml:space="preserve">
<style type="text/css">
	.st0{fill:none;}
	.st1{fill:#231F20;}
	.st2{opacity:0.67;fill:url(#_x31_0_dpi_20_x25_);}
	.st3{opacity:0.67;fill:#29ABE2;}
	.st4{fill:none;stroke:#000000;stroke-width:20;stroke-miterlimit:10;}
</style>
<pattern  width="28.8" height="28.8" patternUnits="userSpaceOnUse" id="_x31_0_dpi_20_x25_" viewBox="1.4 -30.2 28.8 28.8" style="overflow:visible;">
	<g>
		<rect x="1.4" y="-30.2" class="st0" width="28.8" height="28.8"/>
		<g>
			<circle class="st1" cx="30.2" cy="-1.4" r="1.4"/>
			<circle class="st1" cx="15.8" cy="-1.4" r="1.4"/>
			<circle class="st1" cx="30.2" cy="-15.8" r="1.4"/>
			<circle class="st1" cx="15.8" cy="-15.8" r="1.4"/>
			<circle class="st1" cx="8.6" cy="-8.6" r="1.4"/>
			<circle class="st1" cx="23" cy="-8.6" r="1.4"/>
			<circle class="st1" cx="8.6" cy="-23" r="1.4"/>
			<circle class="st1" cx="23" cy="-23" r="1.4"/>
		</g>
		<g>
			<circle class="st1" cx="1.4" cy="-1.4" r="1.4"/>
			<circle class="st1" cx="1.4" cy="-15.8" r="1.4"/>
		</g>
		<g>
			<circle class="st1" cx="30.2" cy="-30.2" r="1.4"/>
			<circle class="st1" cx="15.8" cy="-30.2" r="1.4"/>
		</g>
		<g>
			<circle class="st1" cx="1.4" cy="-30.2" r="1.4"/>
		</g>
	</g>
</pattern>
<g id="Layer_2">
	<path class="st2" d="M371,838V444c0,0,39.4,9.9,67.9,4.4c28.6-5.6,61.1-19.1,93.7-9.5c32.6,9.5,96.4-8.7,96.4-8.7V838H371z"/>
	<path class="st3" d="M371,838V444c0,0,39.4,9.9,67.9,4.4c28.6-5.6,61.1-19.1,93.7-9.5c32.6,9.5,96.4-8.7,96.4-8.7V838H371z"/>
</g>
<g id="Layer_1">
	<polyline class="st4" points="460,162 460,332.6 371,420.3 371,838 460.2,838 544,838 	"/>
	<polyline class="st4" points="540,162 540,332.6 629,420.3 629,838 542.2,838 458,838 	"/>
</g>
</svg>
