<?xml version="1.0" encoding="utf-8"?>
<!-- Generator: Adobe Illustrator 19.2.0, SVG Export Plug-In . SVG Version: 6.00 Build 0)  -->
<svg version="1.1" id="Layer_1" xmlns="http://www.w3.org/2000/svg" xmlns:xlink="http://www.w3.org/1999/xlink" x="0px" y="0px"
	 viewBox="0 0 1000 1000" style="enable-background:new 0 0 1000 1000;" xml:space="preserve">
<style type="text/css">
	.st0{fill:none;stroke:#000000;stroke-width:10;stroke-miterlimit:10;}
</style>
<path class="st0" d="M108,180c-3,0-41-17-41-17l7-26l34-23h42l32,26l47,30l42,51l79,37l27,45l61,20l52,51l64,40l-6,39l-12,70l27,24
	l34-8l35-42l36,4l61,46l29,27l-11,27l-20,10l-39,10l17,19l5,42l40,8l57-36l50,6l42,30l39,48l9,35l-25,13l-24,9h-24l-42,18l-28-18
	l-23-7l-23,2l-21,13l13,33l-17,17l-42,9l-54,19h-61l-55-13l-25-5l-13,18l-26,5l-37-11l-35-8l-28,5l-12-23l14-27l-12-44l-50-62l-42,6
	l-19-14l4-14l28-2l-10-72l-47-17l-60-5l-42-22l2-39l-52-8l-6-19l34-10l45,15l85,17l27-32l41-5l60,20l37,30l36-4l-7-58.5L334,434
	l-2-28l-40-64l29-28l-15-32l-30,24l-26,43l-11-33l-37-15l-21-27l-21-9l-16-30l54-3l1-31l-36-23L108,180z"/>
</svg>
