<?xml version="1.0" encoding="utf-8"?>
<!-- Generator: Adobe Illustrator 19.2.0, SVG Export Plug-In . SVG Version: 6.00 Build 0)  -->
<svg version="1.1" id="Layer_1" xmlns="http://www.w3.org/2000/svg" xmlns:xlink="http://www.w3.org/1999/xlink" x="0px" y="0px"
	 viewBox="0 0 1000 1000" style="enable-background:new 0 0 1000 1000;" xml:space="preserve">
<style type="text/css">
	.st0{fill:none;stroke:#000000;stroke-width:10;stroke-miterlimit:10;}
</style>
<path class="st0" d="M50.1,273.1l17.5-44.6l17.5-15.9l35,8l23.9,22.3l35-12.7l36.6,12.7l14.3,30.3l22.3,23.9v20.7l11.1,8l25.5-56.5
	l28.7,10.4l44.6,1.6l20.7,8l43-36.6l20.7-3.2l15.9,30.3l31.9-1.6l31.8-3.2l68.6-12.7l105.1-49.4l124.2-25.5h60.5h46.2l17.5,20.7
	l15.9,11.1l-8,23.9l-20.7,13.5l-28.7,8.8l-30.3,22.3l-54.1,1.6L754,397.3l-22.3,33.4l11.1,35L711,477.9l-6.4,30.9l20.7,22.3
	l3.2,28.7l9.6,15.9l-3.2,28.7l-6.4,20.7l-47.8,15.9h-30.3l-36.6-22.3l-27.1-9.6l-27.1,11.1l-1.6,20.7l20.7,9.6l22.3,44.6h39.8
	l15.9,22.3v22.3l-27.1,6.4l4.8,15.9l30.3,28.7l-27.1,11.1h-38.2L572.5,789L551.8,762l-25.6,6.4l-19,14.3l-12.7,30.3h-30.3l-30.3-43
	l6.4-31.9l27.1-9.6l6.4-20.7l-19.1-14.3l-22.3,8l-17.5-4.8l-14.3,15.9l-22.3-15.9l-28.7,3.2l-6.4-17.5l-27.1,11.1l-23.9,9.6
	l-17.5-3.2l-31.9-28.7l-41.4-1.6l-12.7,4.8c0,0-17.5-22.3-22.3-27.1c-4.8-4.8-3.2-35-3.2-35l11.1-39.8l12.7-14.3l44.6-1.6l52.6-17.5
	l9.6-22.3l4.8-28.7l-36.6-35l-57.3-49.4v-35l-41.4-38.2l-33.4,6.4l-25.5,33.4v38.2l-6.4,12.7H50.1l-14.3-35l14.3-30.3l4.8-46.2
	L50.1,273.1z"/>
</svg>
