<?xml version="1.0" encoding="utf-8"?>
<!-- Generator: Adobe Illustrator 19.2.0, SVG Export Plug-In . SVG Version: 6.00 Build 0)  -->
<svg version="1.1" id="Layer_1" xmlns="http://www.w3.org/2000/svg" xmlns:xlink="http://www.w3.org/1999/xlink" x="0px" y="0px"
	 viewBox="0 0 1000 1000" style="enable-background:new 0 0 1000 1000;" xml:space="preserve">
<style type="text/css">
	.st0{fill:none;stroke:#000000;stroke-width:10;stroke-miterlimit:10;}
</style>
<polygon class="st0" points="101.1,595.3 57.5,531.8 79.3,464.3 117,464.3 117,377 164.6,328.7 224.2,328.7 267.8,257.9 
	319.4,222.2 414.7,246 585.3,178.5 617.1,202.3 708.4,146.8 748.1,166.6 799.7,146.8 918.7,281.7 942.5,444.4 863.2,551.6 
	803.6,555.6 791.7,623 720.3,650.8 688.5,742.1 668.7,829.4 605.2,829.4 553.6,829.4 500,829.4 450.4,829.4 410.7,829.4 
	355.1,829.4 319.4,853.2 275.8,825.5 240,833.4 121,662.7 "/>
</svg>
