<?xml version="1.0" encoding="utf-8"?>
<!-- Generator: Adobe Illustrator 19.2.0, SVG Export Plug-In . SVG Version: 6.00 Build 0)  -->
<svg version="1.1" id="Layer_1" xmlns="http://www.w3.org/2000/svg" xmlns:xlink="http://www.w3.org/1999/xlink" x="0px" y="0px"
	 viewBox="0 0 1000 1000" style="enable-background:new 0 0 1000 1000;" xml:space="preserve">
<style type="text/css">
	.st0{fill:none;stroke:#000000;stroke-width:10;stroke-miterlimit:10;}
</style>
<polygon class="st0" points="45.5,670.4 133.4,649.5 187.7,609.1 221.3,569.8 257.1,546.6 297.6,528.1 325.3,536.2 341.5,547.8 
	349.6,575.5 370.4,588.3 408.6,581.3 461.8,570.9 528.8,557 557.8,545.5 597.1,552.4 602.9,568.6 585.5,581.3 563.5,587.1 
	519.6,591.7 471,604.4 435.2,625.3 430.6,651.9 464.1,663.4 512.7,670.4 556.6,663.4 608.6,653 654.9,642.6 683.8,642.6 
	719.6,649.5 742.8,654.2 772.8,662.3 830.6,664.6 878.1,658.8 909.3,648.4 944,625.3 959,591.7 959,553.6 938.2,510.8 904.7,518.9 
	868.8,539.7 830.6,542 789,558.2 754.3,572.1 739.3,551.3 735.8,524.7 747.4,496.9 772.8,487.7 812.1,487.7 838.7,476.1 
	853.8,458.8 861.9,429.8 836.4,402.1 802.9,402.1 750.9,402.1 705.8,402.1 688.4,360.5 658.4,348.9 622.5,318.8 607.5,291.1 
	577.4,264.5 548.5,226.3 513.8,191.6 473.3,200.9 387.8,220.5 319.6,237.9 247.9,264.5 212,294.6 225.9,336.2 281.4,330.4 
	331.1,298 375.1,291.1 378.5,317.7 380.8,351.2 370.4,385.9 361.2,397.5 318.4,395.2 275.6,397.5 253.6,405.6 212,420.6 
	166.9,437.9 128.8,459.9 98.7,472.6 89.4,491.1 84.8,539.7 91.8,568.6 89.4,607.9 59.4,641.5 35.1,655.3 27,670.4 "/>
</svg>
