<?xml version="1.0" encoding="utf-8"?>
<!-- Generator: Adobe Illustrator 19.2.0, SVG Export Plug-In . SVG Version: 6.00 Build 0)  -->
<svg version="1.1" id="Layer_1" xmlns="http://www.w3.org/2000/svg" xmlns:xlink="http://www.w3.org/1999/xlink" x="0px" y="0px"
	 viewBox="0 0 1000 1000" style="enable-background:new 0 0 1000 1000;" xml:space="preserve">
<style type="text/css">
	.st0{fill:none;stroke:#000000;stroke-width:10;stroke-miterlimit:10;}
</style>
<polygon class="st0" points="140,138 352,214 422,242 498,258 488,270 466,260 456,270 488,286 486,306 510,306 510,326 480,326 
	458,326 466,348 572,348 598,374 672,486 804,586 826,608 826,644 848,674 832,716 848,750 890,778 926,796 926,836 862,836 
	830,836 804,862 740,834 660,752 604,736 518,626 508,548 466,488 372,438 304,400 252,314 174,296 116,282 84,258 74,228 74,192 
	104,148 "/>
</svg>
