<?xml version="1.0" encoding="utf-8"?>
<!-- Generator: Adobe Illustrator 19.2.0, SVG Export Plug-In . SVG Version: 6.00 Build 0)  -->
<svg version="1.1" id="Layer_1" xmlns="http://www.w3.org/2000/svg" xmlns:xlink="http://www.w3.org/1999/xlink" x="0px" y="0px"
	 viewBox="0 0 1000 1000" style="enable-background:new 0 0 1000 1000;" xml:space="preserve">
<style type="text/css">
	.st0{fill:none;stroke:#000000;stroke-width:10;stroke-miterlimit:10;}
</style>
<polygon class="st0" points="374.4,919.1 361.7,842.9 352.2,795.3 352.2,731.8 323.6,655.6 309.3,519 309.3,392.1 331.6,360.3 
	330,303.2 349,230.1 352.2,185.7 387.1,107.9 426.8,65 455.4,46 477.6,46 493.5,60.3 553.8,98.4 598.3,149.2 611,177.7 633.2,193.6 
	650.6,261.9 687.2,330.1 687.2,342.8 679.2,406.3 693.5,438.1 707.8,511.1 699.9,531.7 707.8,574.6 707.8,650.8 695.1,681 
	693.5,725.4 676,760.3 653.8,790.5 607.8,804.8 555.4,830.2 471.1,835 425.2,836.5 412.5,860.4 418.9,887.3 431.6,906.4 444.3,927 
	452.2,941.3 442.7,954 417.3,954 390.3,942.9 "/>
</svg>
